<?xml version="1.0" standalone="no"?>
<!DOCTYPE svg PUBLIC "-//W3C//DTD SVG 20010904//EN"
 "http://www.w3.org/TR/2001/REC-SVG-20010904/DTD/svg10.dtd">
<svg version="1.0" xmlns="http://www.w3.org/2000/svg"
 width="22.000000pt" height="22.000000pt" viewBox="0 0 22.000000 22.000000"
 preserveAspectRatio="xMidYMid meet">

<g transform="translate(0.000000,22.000000) scale(0.100000,-0.100000)"
fill="#000000" stroke="none">
<path d="M87 206 c-9 -10 -17 -22 -17 -27 0 -5 -8 -9 -18 -9 -10 0 -27 -6 -37
-14 -18 -13 -18 -15 -2 -39 9 -15 17 -39 17 -55 0 -40 21 -56 66 -48 22 5 41
3 50 -5 24 -20 47 -3 41 30 -4 21 -1 34 13 46 11 10 20 23 20 30 0 15 -32 45
-48 45 -7 0 -25 14 -40 31 -26 30 -29 30 -45 15z m33 -41 c6 -15 17 -25 29
-25 26 0 34 -15 16 -30 -8 -7 -15 -28 -15 -47 l0 -35 -25 16 c-19 12 -30 14
-44 6 -29 -15 -31 -13 -31 22 0 17 -7 40 -17 50 -15 17 -15 18 10 18 17 0 32
9 43 25 20 31 22 31 34 0z"/>
</g>
</svg>
